<?xml version="1.0" encoding="UTF-8" standalone="no"?>
<svg
   xmlns:dc="http://purl.org/dc/elements/1.1/"
   xmlns:cc="http://creativecommons.org/ns#"
   xmlns:rdf="http://www.w3.org/1999/02/22-rdf-syntax-ns#"
   xmlns:svg="http://www.w3.org/2000/svg"
   xmlns="http://www.w3.org/2000/svg"
   xmlns:sodipodi="http://sodipodi.sourceforge.net/DTD/sodipodi-0.dtd"
   xmlns:inkscape="http://www.inkscape.org/namespaces/inkscape"
   width="1280.494"
   height="1477.297"
   version="1.1"
   id="svg223"
   sodipodi:docname="yo.svg"
   inkscape:export-filename="/home/jesus/Imágenes/yo.png"
   inkscape:export-xdpi="401"
   inkscape:export-ydpi="401"
   inkscape:version="1.0.2 (e86c870879, 2021-01-15)">
  <metadata
     id="metadata227">
    <rdf:RDF>
      <cc:Work
         rdf:about="">
        <dc:format>image/svg+xml</dc:format>
        <dc:type
           rdf:resource="http://purl.org/dc/dcmitype/StillImage" />
      </cc:Work>
    </rdf:RDF>
  </metadata>
  <sodipodi:namedview
     pagecolor="#ffffff"
     bordercolor="#666666"
     borderopacity="1"
     objecttolerance="10"
     gridtolerance="10"
     guidetolerance="10"
     inkscape:pageopacity="0"
     inkscape:pageshadow="2"
     inkscape:window-width="1680"
     inkscape:window-height="986"
     id="namedview225"
     showgrid="false"
     inkscape:zoom="0.48873043"
     inkscape:cx="981.85227"
     inkscape:cy="229.10609"
     inkscape:window-x="0"
     inkscape:window-y="0"
     inkscape:window-maximized="1"
     inkscape:current-layer="svg223" />
  <defs
     id="defs107">
    <linearGradient
       x1="102.844"
       y1="110.19"
       x2="103.195"
       y2="134.561"
       id="k"
       gradientTransform="scale(1.13673 .87972)"
       gradientUnits="userSpaceOnUse">
      <stop
         stop-color="#FFF"
         stop-opacity=".65"
         offset="0%"
         id="stop2" />
      <stop
         stop-color="#FFF"
         stop-opacity="0"
         offset="100%"
         id="stop4" />
    </linearGradient>
    <linearGradient
       x1="89.543"
       y1="78.129"
       x2="89.431"
       y2="98.91"
       id="u"
       gradientTransform="scale(1.2524 .79847)"
       gradientUnits="userSpaceOnUse">
      <stop
         stop-color="#FFF"
         stop-opacity=".65"
         offset="0%"
         id="stop7" />
      <stop
         stop-color="#FFF"
         stop-opacity="0"
         offset="100%"
         id="stop9" />
    </linearGradient>
    <linearGradient
       x1="104.51"
       y1="5.663"
       x2="100.19"
       y2="51.919"
       id="c"
       gradientTransform="scale(1.14652 .8722)"
       gradientUnits="userSpaceOnUse">
      <stop
         stop-color="#FFF"
         stop-opacity=".8"
         offset="0%"
         id="stop12" />
      <stop
         stop-color="#FFF"
         stop-opacity="0"
         offset="100%"
         id="stop14" />
    </linearGradient>
    <linearGradient
       x1="121.745"
       y1="53.925"
       x2="120.811"
       y2="35.184"
       id="d"
       gradientTransform="scale(.80698 1.2392)"
       gradientUnits="userSpaceOnUse">
      <stop
         stop-color="#FFEED7"
         offset="0%"
         id="stop17" />
      <stop
         stop-color="#BDBFC2"
         offset="100%"
         id="stop19" />
    </linearGradient>
    <linearGradient
       x1="148.081"
       y1="59.382"
       x2="148.081"
       y2="37.696"
       id="e"
       gradientTransform="scale(.88072 1.13544)"
       gradientUnits="userSpaceOnUse">
      <stop
         stop-color="#FFEED7"
         offset="0%"
         id="stop22" />
      <stop
         stop-color="#BDBFC2"
         offset="100%"
         id="stop24" />
    </linearGradient>
    <linearGradient
       x1="155.599"
       y1="41.359"
       x2="154.911"
       y2="49.217"
       id="f"
       gradientTransform="scale(.82506 1.21204)"
       gradientUnits="userSpaceOnUse">
      <stop
         stop-color="#FFF"
         stop-opacity=".65"
         offset="0%"
         id="stop27" />
      <stop
         stop-color="#FFF"
         stop-opacity="0"
         offset="100%"
         id="stop29" />
    </linearGradient>
    <linearGradient
       x1="123.981"
       y1="40.586"
       x2="124.619"
       y2="46.679"
       id="g"
       gradientTransform="scale(.78279 1.27748)"
       gradientUnits="userSpaceOnUse">
      <stop
         stop-color="#FFF"
         stop-opacity=".65"
         offset="0%"
         id="stop32" />
      <stop
         stop-color="#FFF"
         stop-opacity="0"
         offset="100%"
         id="stop34" />
    </linearGradient>
    <linearGradient
       x1="148.015"
       y1="182.554"
       x2="148.015"
       y2="114.048"
       id="h"
       gradientTransform="scale(.81292 1.23013)"
       gradientUnits="userSpaceOnUse">
      <stop
         stop-color="#FFEED7"
         offset="0%"
         id="stop37" />
      <stop
         stop-color="#BDBFC2"
         offset="100%"
         id="stop39" />
    </linearGradient>
    <linearGradient
       x1="108.991"
       y1="156.392"
       x2="101.376"
       y2="102.296"
       id="i"
       gradientTransform="scale(.69274 1.44354)"
       gradientUnits="userSpaceOnUse">
      <stop
         stop-color="#FFEED7"
         offset="0%"
         id="stop42" />
      <stop
         stop-color="#BDBFC2"
         offset="100%"
         id="stop44" />
    </linearGradient>
    <linearGradient
       x1="104.401"
       y1="144.858"
       x2="104.694"
       y2="204.6"
       id="j"
       gradientTransform="scale(1.1079 .90262)"
       gradientUnits="userSpaceOnUse">
      <stop
         stop-color="#FFF"
         stop-opacity=".8"
         offset="0%"
         id="stop47" />
      <stop
         stop-color="#FFF"
         stop-opacity="0"
         offset="100%"
         id="stop49" />
    </linearGradient>
    <linearGradient
       x1="289.775"
       y1="138.693"
       x2="291.192"
       y2="96.789"
       id="b"
       gradientTransform="scale(.61577 1.62398)"
       gradientUnits="userSpaceOnUse">
      <stop
         stop-color="#FFEED7"
         offset="0%"
         id="stop52" />
      <stop
         stop-color="#BDBFC2"
         offset="100%"
         id="stop54" />
    </linearGradient>
    <linearGradient
       x1="103.163"
       y1="63.007"
       x2="103.163"
       y2="108.009"
       id="l"
       gradientTransform="scale(.57191 1.74852)"
       gradientUnits="userSpaceOnUse">
      <stop
         stop-color="#FFF"
         stop-opacity=".65"
         offset="0%"
         id="stop57" />
      <stop
         stop-color="#FFF"
         stop-opacity="0"
         offset="100%"
         id="stop59" />
    </linearGradient>
    <linearGradient
       x1="330.86"
       y1="58.718"
       x2="330.855"
       y2="99.452"
       id="m"
       gradientTransform="scale(.57295 1.74537)"
       gradientUnits="userSpaceOnUse">
      <stop
         stop-color="#FFF"
         stop-opacity=".65"
         offset="0%"
         id="stop62" />
      <stop
         stop-color="#FFF"
         stop-opacity="0"
         offset="100%"
         id="stop64" />
    </linearGradient>
    <linearGradient
       x1="54.492"
       y1="225.125"
       x2="41.523"
       y2="269.054"
       id="n"
       gradientTransform="scale(1.01163 .9885)"
       gradientUnits="userSpaceOnUse">
      <stop
         stop-color="#FFA63F"
         offset="0%"
         id="stop67" />
      <stop
         stop-color="#FF0"
         offset="100%"
         id="stop69" />
    </linearGradient>
    <linearGradient
       x1="181.205"
       y1="222.524"
       x2="179.432"
       y2="145.707"
       id="o"
       gradientTransform="scale(1.0209 .97952)"
       gradientUnits="userSpaceOnUse">
      <stop
         stop-color="#FFEED7"
         offset="0%"
         id="stop72" />
      <stop
         stop-color="#BDBFC2"
         offset="100%"
         id="stop74" />
    </linearGradient>
    <linearGradient
       x1="180.039"
       y1="200.218"
       x2="211.416"
       y2="249.231"
       id="p"
       gradientTransform="scale(.95627 1.04573)"
       gradientUnits="userSpaceOnUse">
      <stop
         stop-color="#FFA63F"
         offset="0%"
         id="stop77" />
      <stop
         stop-color="#FF0"
         offset="100%"
         id="stop79" />
    </linearGradient>
    <linearGradient
       x1="224.737"
       y1="142.266"
       x2="218.799"
       y2="186.405"
       id="q"
       gradientTransform="scale(.81152 1.23226)"
       gradientUnits="userSpaceOnUse">
      <stop
         stop-color="#FFF"
         stop-opacity=".65"
         offset="0%"
         id="stop82" />
      <stop
         stop-color="#FFF"
         stop-opacity="0"
         offset="100%"
         id="stop84" />
    </linearGradient>
    <linearGradient
       x1="53.036"
       y1="186.021"
       x2="55.101"
       y2="244.908"
       id="r"
       gradientTransform="scale(.98731 1.01285)"
       gradientUnits="userSpaceOnUse">
      <stop
         stop-color="#FFF"
         stop-opacity=".65"
         offset="0%"
         id="stop87" />
      <stop
         stop-color="#FFF"
         stop-opacity="0"
         offset="100%"
         id="stop89" />
    </linearGradient>
    <linearGradient
       x1="172.709"
       y1="182.055"
       x2="175.561"
       y2="200.622"
       id="s"
       gradientTransform="scale(1.04423 .95764)"
       gradientUnits="userSpaceOnUse">
      <stop
         stop-color="#FFF"
         stop-opacity=".65"
         offset="0%"
         id="stop92" />
      <stop
         stop-color="#FFF"
         stop-opacity="0"
         offset="100%"
         id="stop94" />
    </linearGradient>
    <linearGradient
       x1="95.571"
       y1="77.674"
       x2="95.991"
       y2="119.353"
       id="t"
       gradientTransform="scale(1.2107 .82596)"
       gradientUnits="userSpaceOnUse">
      <stop
         stop-color="#FFA63F"
         offset="0%"
         id="stop97" />
      <stop
         stop-color="#FF0"
         offset="100%"
         id="stop99" />
    </linearGradient>
    <filter
       x="-.5"
       y="-.5"
       width="2"
       height="2"
       filterUnits="objectBoundingBox"
       id="a">
      <feOffset
         in="SourceAlpha"
         result="shadowOffsetOuter1"
         id="feOffset102" />
      <feGaussianBlur
         stdDeviation="6.5"
         in="shadowOffsetOuter1"
         result="shadowBlurOuter1"
         id="feGaussianBlur104" />
    </filter>
  </defs>
  <g
     transform="translate(-1293.61 -393.88)"
     id="g221">
    <path
       style="fill:#552200;fill-opacity:1;fill-rule:nonzero;stroke:#000;stroke-width:0;stroke-linecap:round;stroke-linejoin:bevel;stroke-opacity:0;paint-order:markers stroke fill"
       d="M1817.876 824.85c8.261-3.52 26.567-1.272 33.475 5.339 5.435 41.652-44.417 28.228-33.475-5.339z"
       id="path109" />
    <path
       style="fill:#6a93b4;fill-opacity:1;fill-rule:nonzero;stroke:#000;stroke-width:0;stroke-linecap:round;stroke-linejoin:bevel;stroke-opacity:0;paint-order:markers stroke fill"
       d="M2082.539 1065.175c0-.23 5.118-7.901 7.299-11.561 15.113-26.795 15.024-34.485 29.461-67.063l4.92 2.534c2.446 1.26 21.233 12 68.077 37.345 23.552 12.743 47.683 25.82 53.624 29.058l11.922 7.934-4.779.724c-3.599.545-170.524 1.58-170.524 1.029zM1608.833 1057.61c7.851-3.865 29.453-14.852 48.004-24.414 48.873-25.192 73.018-36.507 85.736-40.181 2.899-.838 12.36-4.979 13.468-2.637.175.371-.454 2.613.454 5.149 1.633 4.563 5.392 14.012 12.068 27.811 6.063 12.533 15.295 22.634 23.187 33.858l6.339 9.015-31.772-.609c-14.265-.273-57.928 2.57-98.028 2.567l-73.73-3.525z"
       id="path111" />
    <path
       style="fill:#f0b3a8;fill-opacity:1;fill-rule:nonzero;stroke:#000;stroke-width:0;stroke-linecap:round;stroke-linejoin:bevel;stroke-opacity:0;paint-order:markers stroke fill"
       d="M2127.33 876.868c-.488-15.377-.12-33.763 1.03-51.483 2.113-32.54 7.362-56.722 16.435-75.717 3.965-8.3 10.44-23.39 12.571-29.29.958-2.654 1.547-3.328 3.851-4.405 3.615-1.692 8.242-1.76 10.678-.157 2.31 1.519 5.2 6.67 6.154 10.963.965 4.343.95 19.611-.026 27.027-2.778 21.1-12.504 53.237-27.141 89.677-6.639 16.528-18.248 41.39-21.735 46.546l-1.335 1.975-.48-15.136zM1735.681 867.887c-9.83-22.47-27.508-93.57-32.4-130.313-1.644-12.338-1.68-30.157-.074-35.37 1.997-6.477 5.091-9.713 6.159-6.441 4.649 14.248 11.534 41.309 14.952 58.761 10.238 52.279 15.72 98.998 13.367 113.898l-.47 2.973z"
       id="path113" />
    <path
       style="fill:#533e39;fill-opacity:1;fill-rule:nonzero;stroke:#000;stroke-width:0;stroke-linecap:round;stroke-linejoin:bevel;stroke-opacity:0;paint-order:markers stroke fill"
       d="M1789.286 1056.877c-14.927-18.938-35.227-53.752-41.893-82.874-3.971-17.354-7.36-49.542-10.18-96.73-4.692-78.47-12.747-132.202-27.742-185.046-7.215-25.428-9.117-40.8-9.158-74.019-.04-32.337 1.758-47.78 8.503-73.015 7.987-29.886 20.203-54.237 38.764-77.269 19.027-23.61 36.816-34.453 79.58-48.506 88.061-28.94 180.354-33.814 225.345-11.902 18.128 8.829 33.81 26.755 37.022 42.32.84 4.065 2.438 5.385 9.384 7.748 38.644 13.144 65.42 42.195 76.81 83.339 3.25 11.74 3.71 17.644 3.79 48.687.054 21.402-.8 41.295-2.168 50.467-6.215 41.67-17.234 81.385-30.34 109.351-4.769 10.177-7.941 20.575-10.914 35.77-3.844 19.648-4.343 27.704-6.035 97.305-2.028 83.433-1.55 79.613-14.413 115.3-7.276 20.186-22.328 52.335-27.648 59.05l-5.868 8.53-45.668-.903-48.84-.193 4.596-7.715c4.216-7.077 3.263-15.657-4.079-22.544-9.174-8.607-14.604-9.926-39.757-9.651-38.13.415-44.079.403-59.785-.13-11.557-.392-16.335.135-20.187 2.228-14.54 7.899-24.305 32.41-16.402 38.409 2.484 1.886-1.71 5.743-26.835 5.789l-29.828-6.115zm257.672-32.828c7.905-6.926 25.281-28.808 48.132-60.613 20.225-28.15 19.066-24.879 25.765-72.782 7.982-57.075 7.147-89.854-4.351-170.748-12.883-90.643-26.945-138.989-44.025-151.361-8.139-5.896-16.256-6.524-24.837-1.922-6.924 3.713-18.98 24.936-27.296 48.054-6.65 18.484-16.153 28.995-35.025 38.74-6.94 3.583-14.623 7.912-17.075 9.62-6.451 4.493-33.28 12.897-50.958 15.962-9.183 1.592-20.992 2.371-29.718 1.96-13.5-.634-15.319-1.175-26.915-8.013-24.033-14.172-47.467-43.503-52.916-66.233-4.562-19.03-5.641-22.106-10.245-29.203-13.12-20.224-28.763-14.357-43.956 16.485-14.795 30.035-20.582 64.214-21.764 128.539-1.915 104.212 13.674 208.971 38.54 258.992 7.745 15.579 12.086 21.762 25.274 35.996l9.614 10.376 2.43-4.7c3.368-6.513 28.459-30.21 40.186-37.955 10.11-6.676 20.834-11.794 28.371-13.541 3.369-.78 5.969.214 10.935 4.183 11.469 9.167 24.163 12.24 39.534 9.57 14.48-1.544 18.356-17.273 32.722-15.27 13.067 2.09 33.266 18.624 54.177 38.015 15.96 14.8 23.784 21.317 25.595 21.317.861 0 4.374-2.46 7.806-5.468z"
       id="path115" />
    <path
       style="fill:#552200;fill-opacity:1;fill-rule:nonzero;stroke:#000;stroke-width:0;stroke-linecap:round;stroke-linejoin:bevel;stroke-opacity:0;paint-order:markers stroke fill"
       d="M2003.433 834.561c8.26-3.52 26.876-9.956 33.785-3.345 5.434 41.652-44.728 36.913-33.785 3.345z"
       id="path117" />
    <path
       style="fill:#533e39;fill-opacity:1;fill-rule:nonzero;stroke:#000;stroke-width:0;stroke-linecap:round;stroke-linejoin:bevel;stroke-opacity:0;paint-order:markers stroke fill"
       d="M1981.638 830.523c-2.126-.27-2.709-.543-3.862-1.801-.747-.815-1.596-2.276-1.887-3.246-.483-1.614-.443-1.925.468-3.643 1.926-3.63 6.422-6.49 11.434-7.271 1.543-.241 8.357-.626 15.14-.855 19.974-.675 31.566-2.142 41.05-5.196 11.265-3.628 16.117-7.376 28.92-8.528 10.8-.972 22.632 3.519 26.66 4.715 2.12.63 3.81 1.837 3.81 2.72 0 .779-3.818 4.55-6.224 6.146-6.927 4.598-13.8 5.973-34.36 6.873-12.75.558-17.81 1.287-22.496 3.238-5.954 2.48-8.011 3.083-12.62 3.707-2.429.329-7.444 1.086-11.145 1.684-9.282 1.5-28.314 2.294-34.888 1.457z"
       id="path119" />
    <path
       style="fill:#f0b3a8;fill-opacity:1;fill-rule:nonzero;stroke:#000;stroke-width:0;stroke-linecap:round;stroke-linejoin:bevel;stroke-opacity:0;paint-order:markers stroke fill"
       d="M1850.705 1063.25c-.889-1.517-1.223-2.697-1.34-4.728-.706-12.174 11.566-30.34 22.485-33.288 3.783-1.021 7.637-1.117 26.768-.663 10.216.243 16.455.252 35.328.054 23.658-.247 30.07-.157 35.432.5 8.035.984 12.952 3.394 18.85 9.237 4.659 4.617 6.619 9.061 6.32 14.331-.188 3.326-.928 5.258-4.033 10.522l-2.586 4.384-12.272.13c-6.75.07-37.503.2-68.341.287l-56.07.158z"
       id="path121" />
    <path
       style="fill:#b3b3b3;fill-opacity:1;stroke:#000;stroke-width:.705458px;stroke-linecap:butt;stroke-linejoin:miter;stroke-opacity:1"
       d="m1337.836 1065.69 1198.174-4.3s39.809 2.125 37.657 50.916c-2.152 48.79-52.951 734.153-52.951 734.153s-7.063 16.106-26.251 22.648c-7.802 2.66-1124.533 1.438-1124.533 1.438-5.533-2.84-24.218-16.149-26.675-29.848-2.347-13.088-49.294-741.075-49.294-741.075s2.209-31.647 43.873-33.932z"
       id="path123" />
    <path
       style="fill:#f0b3a8;fill-opacity:1;fill-rule:nonzero;stroke:#000;stroke-width:0;stroke-linecap:round;stroke-linejoin:bevel;stroke-opacity:0;paint-order:markers stroke fill"
       d="M2033.293 1024.828c-3.168-2.52-10.31-8.733-15.871-13.806-41.026-37.423-56.184-50.363-79.41-32.392-4.457 3.449-8.96 6.763-21.59 6.763-10.427 0-17.501-2.348-27.759-9.212-7.343-4.914-8.447-5.3-13.045-4.565-6.293 1.006-21.544 8.576-31.29 15.53-9.949 7.1-32.313 28.542-36.304 34.807l-3.209 5.038-9.815-10.985c-19.372-21.68-28.323-38.751-38.56-73.54-17.523-59.55-27.023-154.696-23.534-235.705 1.681-39.037 3.905-58.27 9.113-78.82 8.846-34.906 25.445-61.27 38.569-61.256 10.773.011 19.022 11.015 24.873 33.181 5.775 21.884 13.423 35.54 29.218 52.174 10.02 10.55 18.824 17.532 29.544 23.424 6.168 3.39 9.911 4.536 17.76 5.436 25.441 2.918 65.55-5.88 90.832-19.922 21.974-12.206 24.735-13.98 31.721-20.388 7.396-6.783 11.228-13.564 21.264-37.629 5.394-12.936 12.363-25.56 17.436-31.59 8.45-10.042 24.392-9.019 33.603 2.157 12.561 15.238 23.343 50.83 33.298 109.92 12.798 75.966 17.454 129.905 14.46 167.529-2.403 30.22-8.148 70.537-11.61 81.483-2.457 7.77-6.386 14.141-21.62 35.05-24.925 34.215-41.198 53.986-49.01 59.55l-3.303 2.351zm30.591-182.733c-12.032-23.058-84.144-8.672-87.869 8.053 17.242 12.91 62.185 17.607 87.87-8.053zm-241.193-20.347c-9.083-1.836-23.636-6.231-32.468-9.176-8.833-2.945-20.502-6.016-25.932-6.825-6.154-.917-10.858-2.307-12.49-3.691l-2.617-2.221 3.29-2.937c4.413-3.938 13.59-6.564 25.876-7.402 9.257-.631 10.8-.407 17.843 2.592 14.433 6.147 40.983 14.711 53.504 17.26 6.868 1.397 13.405 3.37 14.527 4.385 1.97 1.783 3.452 5.513 5.062 12.736l.768 3.446-9.285-.755c-14.471-1.043-66.104-7.625-68.167 2.158 11.845 31.619 55.624 26.66 70.09 18.394v0c22.123-11.464-10.566-20.03-19.351-22.34m176.853 1.475c7.086-.974 15.595-2.84 18.908-4.145 4.189-1.651 11.138-2.734 22.803-3.552 25.495-1.788 32.8-3.75 39.33-10.565l3.264-3.408-2.797-1.803c-4.591-2.96-16.828-5.547-26.165-5.534-7.104.01-11.288.898-22.243 4.718-17.222 6.007-22.563 6.958-46.973 8.368-14.104.815-21.24 1.735-24.14 3.111-8.995 4.268-8.781 13.477.342 14.771 6.56.93 22.764.087 37.671-1.961z"
       id="path125" />
    <path
       style="fill:#533e39;fill-opacity:1;fill-rule:nonzero;stroke:#000;stroke-width:0;stroke-linecap:round;stroke-linejoin:bevel;stroke-opacity:0;paint-order:markers stroke fill"
       d="M1860.008 829.27c-8.031-1.279-34.017-7.018-49.217-10.87-7.23-1.833-12.064-3.339-18.437-5.745-12.297-4.643-17.306-5.944-28.645-7.44-3.709-.489-7.28-1.036-7.933-1.215-2.678-.732-5.205-2.85-5.205-4.362 0-1.585 3.968-4.485 8.439-6.168 4.389-1.652 11.444-3.078 18.326-3.704 9.35-.851 13.248-.126 22.349 4.159 8.726 4.108 15.235 6.53 26.678 9.924 15.47 4.59 25.65 7.018 31.913 7.615 2.439.232 3.259.436 4.169 1.038 2.431 1.61 4.255 5.184 5.688 11.15.412 1.717.826 3.675.92 4.352.15 1.093.096 1.25-.497 1.408-.962.258-6.626.163-8.548-.143z"
       id="path127" />
    <g
       fill="none"
       id="g183">
      <path
         d="M235.125 249.359c0 17.355-52.617 31.497-117.54 31.497S.044 266.806.044 249.359c0-17.356 52.618-31.498 117.54-31.498 64.924 0 117.45 14.142 117.541 31.498z"
         fill="#000"
         fill-opacity=".2"
         filter="url(#a)"
         transform="matrix(.60624 .00508 -.00537 .66992 1863.912 1359.991)"
         id="path129" />
      <path
         d="M1895.014 1504.612c-6.815-11.008-7.865-46.7 8.4-68.527 8.045-10.452 10.163-17.756 10.855-27.655.535-11.255-6.822-44.845 21.924-47.127 29.136-2.34 27.267 29.39 26.965 46.183-.224 14.148 9.231 22.287 15.71 33.415 11.919 20.402 10.636 55.336-2.877 74.172-17.113 23.543-31.505 13.147-41.143 13.928-18.047 1.018-18.744 11.594-39.834-24.389z"
         fill="#000"
         id="path131" />
      <path
         d="M169.1 122.451c8.265 7.622 29.661 41.69-4.224 62.995-11.937 7.438 10.653 35.721 21.488 22.039 19.193-24.61 6.98-63.913-4.591-77.963-7.714-9.917-19.651-13.774-12.672-7.07z"
         fill="url(#b)"
         transform="matrix(.60624 .00508 -.00537 .66992 1863.912 1359.991)"
         style="fill:url(#b)"
         id="path133" />
      <path
         d="M176.805 117.86c13.59 11.02 38.292 49.587 2.204 74.748-11.846 7.806 10.468 32.508 23.049 19.927 43.618-43.894-1.102-94.308-16.53-111.664-13.774-15.151-25.987 3.49-8.723 16.989z"
         stroke="#000"
         stroke-width=".977"
         fill="#000"
         transform="matrix(.60624 .00508 -.00537 .66992 1857.85 1359.94)"
         id="path135" />
      <path
         d="M147.245 25.02c-.459 12.581-14.325 23.51-30.946 24.52-16.621 1.01-29.66-8.54-29.202-21.121.46-12.581 14.326-23.509 30.947-24.519 16.62-.918 29.66 8.54 29.201 21.12z"
         fill="url(#c)"
         transform="matrix(.60624 .00508 -.00537 .66992 1863.912 1359.991)"
         style="fill:url(#c)"
         id="path137" />
      <path
         d="M107.483 54.957c.46 8.173-3.397 15.06-8.723 15.335-5.326.276-10.01-6.06-10.469-14.233-.459-8.173 3.398-15.06 8.724-15.335 5.326-.276 10.01 6.06 10.468 14.233z"
         fill="url(#d)"
         transform="matrix(.60624 .00508 -.00537 .66992 1863.912 1359.991)"
         style="fill:url(#d)"
         id="path139" />
      <path
         d="M117.125 55.6c.184 9.458 6.337 16.988 13.683 16.805 7.346-.184 13.131-7.99 12.948-17.54-.184-9.458-6.336-16.988-13.683-16.804-7.346.183-13.223 8.08-12.948 17.539z"
         fill="url(#e)"
         transform="matrix(.60624 .00508 -.00537 .66992 1863.912 1359.991)"
         style="fill:url(#e)"
         id="path141" />
      <path
         d="M1938.282 1399.28c-.084 3.505 1.453 6.348 3.512 6.365 2.005.017 3.753-2.798 3.837-6.242.083-3.506-1.453-6.35-3.513-6.367-2.06-.017-3.752 2.8-3.836 6.243zm-12.86-.047c.255 2.894-.767 5.346-2.216 5.58-1.449.173-2.824-1.992-3.079-4.886-.255-2.893.767-5.346 2.216-5.58 1.45-.172 2.824 1.993 3.08 4.886z"
         fill="#000"
         id="path143" />
      <path
         d="M124.564 54.773c-.276 2.939 1.102 5.326 3.03 5.51 1.928.184 3.765-2.112 4.04-4.959.276-2.938-1.102-5.326-3.03-5.51-1.928-.183-3.765 2.113-4.04 4.96z"
         fill="url(#f)"
         transform="matrix(.60624 .00508 -.00537 .66992 1863.912 1359.991)"
         style="fill:url(#f)"
         id="path145" />
      <path
         d="M99.953 55.508c.276 2.388-.734 4.5-2.203 4.683-1.47.184-2.847-1.653-3.123-4.132-.275-2.388.735-4.5 2.204-4.683 1.47-.184 2.847 1.744 3.122 4.132z"
         fill="url(#g)"
         transform="matrix(.60624 .00508 -.00537 .66992 1863.912 1359.991)"
         style="fill:url(#g)"
         id="path147" />
      <path
         d="M71.027 145.684c6.52-14.785 20.386-40.772 20.662-60.883 0-15.978 47.843-19.835 51.7-3.856 3.856 15.978 13.59 39.853 19.834 51.424 6.245 11.478 24.335 48.118 5.051 80.074-17.356 28.284-69.973 50.69-98.073-3.856-9.55-18.917-7.806-42.333.826-62.903z"
         fill="url(#h)"
         transform="matrix(.60624 .00508 -.00537 .66992 1863.912 1359.991)"
         style="fill:url(#h)"
         id="path149" />
      <path
         d="M65.15 134.664c-5.601 10.56-17.172 38.293 11.112 53.445 30.395 16.162 30.303 49.312-6.245 33.517-33.425-14.233-18.641-71.902-9.274-85.676 6.06-9.642 15.243-21.488 4.407-1.286z"
         fill="url(#i)"
         transform="matrix(.60624 .00508 -.00537 .66992 1863.912 1359.991)"
         style="fill:url(#i)"
         id="path151" />
      <path
         d="M79.925 122.727c-8.907 14.509-30.211 48.669-1.652 66.484 38.384 23.6 27.548 47.108-7.53 25.895-49.404-29.568-5.97-89.257 13.774-112.03 22.59-25.529 4.316 4.683-4.592 19.65z"
         stroke="#000"
         stroke-width="1.25"
         fill="#000"
         transform="matrix(.60624 .00508 -.00537 .66992 1857.85 1359.94)"
         id="path153" />
      <path
         d="M156.428 151.285c0 16.162-15.519 37.1-42.15 36.916-27.456.183-39.118-20.754-39.118-36.916 0-16.161 18.182-29.293 40.588-29.293 22.498.092 40.68 13.132 40.68 29.293z"
         fill="url(#j)"
         transform="matrix(.60624 .00508 -.00537 .66992 1863.912 1359.991)"
         style="fill:url(#j)"
         id="path155" />
      <path
         d="M141.92 100.504c-.276 16.713-11.204 20.662-24.978 20.662-13.775 0-23.784-2.48-24.978-20.662 0-11.387 11.203-17.998 24.978-17.998 13.774-.092 24.977 6.52 24.977 17.998z"
         fill="url(#k)"
         transform="matrix(.60624 .00508 -.00537 .66992 1863.912 1359.991)"
         style="fill:url(#k)"
         id="path157" />
      <path
         d="M58.63 126.216c9-13.682 28.008-34.711 3.582 2.939-19.835 31.038-7.346 50.965-.918 56.474 18.549 16.53 17.814 27.64 3.214 18.917-31.314-18.641-24.794-50.047-5.878-78.33z"
         fill="url(#l)"
         transform="matrix(.60624 .00508 -.00537 .66992 1863.912 1359.991)"
         style="fill:url(#l)"
         id="path159" />
      <path
         d="M188.936 131.818c-7.806-16.07-32.6-56.842 1.193-9.459 30.763 42.884 9.183 72.729 5.326 75.667-3.856 2.939-16.804 8.908-13.04-1.469 3.858-10.377 22.958-30.028 6.52-64.74z"
         fill="url(#m)"
         transform="matrix(.60624 .00508 -.00537 .66992 1863.912 1359.991)"
         style="fill:url(#m)"
         id="path161" />
      <path
         d="M51.835 258.542c-20.57-10.928-50.414 2.112-39.578-27.457 2.204-6.704-3.214-16.805.275-23.325 4.133-7.989 13.04-6.244 18.366-11.57 5.234-5.51 8.54-15.06 18.366-13.59 9.734 1.468 16.254 13.406 23.049 28.099 5.05 10.468 22.865 25.253 21.672 37.007-1.47 17.998-21.948 21.396-42.15 10.836z"
         stroke="#e68c3f"
         stroke-width="6.25"
         fill="url(#n)"
         transform="matrix(.60624 .00508 -.00537 .66992 1863.912 1359.991)"
         style="fill:url(#n)"
         id="path163" />
      <path
         d="M201.608 189.119c-3.122 5.877-16.162 15.335-24.886 12.856-8.815-2.388-12.856-15.795-11.111-25.988 1.653-11.386 11.111-12.03 23.05-6.336 12.855 6.336 16.712 11.662 12.947 19.468z"
         fill="url(#o)"
         transform="matrix(.60624 .00508 -.00537 .66992 1863.912 1359.991)"
         style="fill:url(#o)"
         id="path165" />
      <path
         d="M194.445 253.49c15.06-18.273 48.578-14.508 25.988-39.577-4.775-5.418-3.306-16.989-9.183-21.947-6.887-6.061-14.509-1.102-21.488-4.224-6.979-3.398-14.325-9.918-22.865-5.327-8.54 4.684-9.459 16.805-10.285 32.783-.735 11.479-11.203 30.671-5.602 41.231 8.081 16.346 29.11 14.142 43.435-2.938z"
         stroke="#e68c3f"
         stroke-width="6.251"
         fill="url(#p)"
         transform="matrix(.60624 .00508 -.00537 .66992 1863.912 1359.991)"
         style="fill:url(#p)"
         id="path167" />
      <path
         d="M187.925 229.064c23.325-34.435 5.97-34.16.092-36.823-5.877-2.755-12.03-8.173-18.916-4.408-6.888 3.857-7.255 13.775-7.439 26.814-.275 9.367-8.08 25.07-3.397 33.793 5.693 10.193 19.467-4.591 29.66-19.376z"
         fill="url(#q)"
         transform="matrix(.60624 .00508 -.00537 .66992 1863.912 1359.991)"
         style="fill:url(#q)"
         id="path169" />
      <path
         d="M47.06 234.023c-34.895-22.59-18.55-30.303-13.315-33.885 6.336-4.591 6.428-13.407 14.233-12.58 7.806.826 12.397 10.468 17.631 22.406 3.857 8.54 17.264 19.927 16.254 29.753-1.285 11.57-19.743 3.948-34.803-5.694z"
         fill="url(#r)"
         transform="matrix(.60624 .00508 -.00537 .66992 1863.912 1359.991)"
         style="fill:url(#r)"
         id="path171" />
      <path
         d="M1983.896 1487.515c-1.696 3.186-8.528 8.173-13.027 6.781-4.61-1.33-6.668-8.545-5.678-13.95.884-6.146 5.842-6.412 12.052-3.283 6.598 3.377 8.635 6.224 6.653 10.452z"
         fill="#000"
         id="path173" />
      <path
         d="M192.058 186.18c-1.745 3.306-9.091 8.54-14.234 7.163-5.142-1.377-7.713-8.815-6.887-14.417.735-6.336 6.244-6.704 13.223-3.581 7.53 3.49 9.918 6.428 7.898 10.835z"
         fill="url(#s)"
         transform="matrix(.60624 .00508 -.00537 .66992 1863.912 1359.991)"
         style="fill:url(#s)"
         id="path175" />
      <path
         d="M97.107 66.344c3.673-3.398 12.58-13.774 29.477-2.939 3.122 2.02 5.693 2.204 11.662 4.775 12.03 4.96 6.336 16.897-6.52 20.937-5.51 1.745-10.468 8.449-20.386 7.806-8.54-.46-10.744-6.06-15.978-9.091-9.275-5.234-10.652-12.305-5.602-16.07 5.051-3.765 6.98-5.143 7.347-5.418z"
         stroke="#e68c3f"
         stroke-width="3.75"
         fill="url(#t)"
         transform="matrix(.60624 .00508 -.00537 .66992 1863.912 1359.991)"
         style="fill:url(#t)"
         id="path177" />
      <path
         d="M148.43 75.986c-5.05.275-15.979 11.203-27.457 11.203-11.479 0-18.366-10.652-20.11-10.652"
         stroke="#e68c3f"
         stroke-width="2.5"
         transform="matrix(.60624 .00508 -.00537 .66992 1857.85 1359.94)"
         id="path179" />
      <path
         d="M102.8 65.426c1.837-1.653 7.622-6.153 15.244-1.562 1.653.919 3.306 1.929 5.693 3.306 4.867 2.847 2.48 6.98-3.398 9.55-2.663 1.102-7.07 3.49-10.376 3.306-3.673-.367-6.153-2.755-8.54-4.316-4.5-2.938-4.224-5.418-2.112-7.346 1.56-1.47 3.305-2.847 3.49-2.938z"
         fill="url(#u)"
         transform="matrix(.60624 .00508 -.00537 .66992 1863.912 1359.991)"
         style="fill:url(#u)"
         id="path181" />
    </g>
    <ellipse
       style="fill:#fff;stroke:#000;stroke-width:0;stroke-linecap:round;stroke-linejoin:bevel;stroke-opacity:0;paint-order:markers stroke fill"
       cx="2025.947"
       cy="844.397"
       rx="6.762"
       ry="7.744"
       id="ellipse185" />
    <ellipse
       style="fill:#000;stroke:#000;stroke-width:0;stroke-linecap:round;stroke-linejoin:bevel;stroke-opacity:0;paint-order:markers stroke fill"
       cx="2018.943"
       cy="851.051"
       rx="7.209"
       ry="6.566"
       id="ellipse187" />
    <ellipse
       style="fill:#fff;stroke:#000;stroke-width:0;stroke-linecap:round;stroke-linejoin:bevel;stroke-opacity:0;paint-order:markers stroke fill"
       cx="1841.427"
       cy="839.01"
       rx="6.791"
       ry="7.634"
       id="ellipse189" />
    <ellipse
       style="fill:#000;stroke:#000;stroke-width:0;stroke-linecap:round;stroke-linejoin:bevel;stroke-opacity:0;paint-order:markers stroke fill"
       cx="1836.73"
       cy="845.25"
       rx="7.163"
       ry="6.675"
       id="ellipse191" />
    <path
       style="fill:#d38d5f;stroke:#000;stroke-width:0;stroke-linecap:round;stroke-linejoin:bevel;stroke-opacity:0;paint-order:markers stroke fill"
       d="M1915.638 1053.56a253.4 253.4 0 0 0-2.602-.206c-11.186-.844-22.7-3.25-33.753-7.054l-2.825-.972 2.305.078 8.55.294c26.634 1.998 44.07 1.323 76.873.07 6.726-.486 6.922-.493 6.365-.236-.618.286-5.807 1.994-8.373 2.755-9.493 2.818-21.095 4.786-30.779 5.22-2.904.13-14.507.168-15.76.051z"
       id="path193" />
    <path
       style="fill:#a05a2c;stroke:#000;stroke-width:0;stroke-linecap:round;stroke-linejoin:bevel;stroke-opacity:0;paint-order:markers stroke fill"
       d="M582.848 651.447h-3.22l-.385-.457c-.511-.607-.486-.938.107-1.39 1.948-1.486 8.39-2.475 20.101-3.086 27.07-.733 52.856-.07 77.914 2.934 4.49.552 7.754 1.181 7.337 1.415-36.763 3.244-69.171 1.066-101.854.584z"
       transform="translate(1293.61 393.88)"
       id="path195" />
    <path
       style="fill:none;fill-opacity:1;stroke:#5b422d;stroke-width:0;stroke-linecap:round;stroke-linejoin:bevel;stroke-miterlimit:4;stroke-dasharray:none;stroke-opacity:1;paint-order:markers stroke fill"
       d="M2088.02 467.193c-9.07 9.092-17.683 18.812-24.238 29.905-4.708 7.967-8.304 16.81-9.025 26.12-.561 7.254.96 14.579 3.968 21.185 2.11 4.636 4.888 8.941 7.972 12.986"
       id="path197" />
    <path
       style="fill:none;fill-opacity:1;stroke:#543a38;stroke-width:4.2;stroke-linecap:round;stroke-linejoin:bevel;stroke-miterlimit:4;stroke-dasharray:none;stroke-opacity:1;paint-order:markers stroke fill"
       d="M2087.88 462.523c-.538 3.644-.6 7.333-.526 11.009.094 4.63-.42 9.253-1.33 13.788-1.89 9.412-4.683 18.614-7.601 27.749-4.152 12.992-8.67 25.864-13.282 38.7"
       id="path199" />
    <path
       style="fill:none;fill-opacity:1;stroke:#543a38;stroke-width:6;stroke-linecap:round;stroke-linejoin:bevel;stroke-miterlimit:4;stroke-dasharray:none;stroke-opacity:1;paint-order:markers stroke fill"
       d="M2109.602 475.641c14.164 5.853 26.544 16.014 34.703 29.047 10.153 16.218 14.188 35.448 15.517 54.302 1.991 28.236-.952 56.528-4.512 84.516-3.514 27.623-7.922 55.13-10.886 82.823"
       id="path201" />
    <path
       style="fill:none;fill-opacity:1;stroke:#543a38;stroke-width:6;stroke-linecap:round;stroke-linejoin:bevel;stroke-miterlimit:4;stroke-dasharray:none;stroke-opacity:1;paint-order:markers stroke fill"
       d="M2101.633 506.043c5.999-2.118 13.034-2.515 18.696.803 6.697 3.924 10.585 11.146 13.102 18.22 4.879 13.717 6.61 28.318 7.594 42.76 2.065 30.325 1.16 60.75.177 91.098-.818 25.262-1.884 50.52-2.248 75.794"
       id="path203" />
    <path
       style="fill:none;fill-opacity:1;stroke:#543a38;stroke-width:6;stroke-linecap:round;stroke-linejoin:bevel;stroke-miterlimit:4;stroke-dasharray:none;stroke-opacity:1;paint-order:markers stroke fill"
       d="M2090.956 551.05c3.803-2.43 8.648-4.368 13.12-2.715 4.698 1.737 7.598 6.276 9.505 10.652 4.016 9.217 5.77 19.228 7.048 29.133 2.99 23.166 3.623 46.547 4.552 69.862.949 23.798 1.418 47.675 4.477 71.318.574 4.438 1.254 8.864 2.126 13.253M2023.913 568.891c-25.451 12.065-51.907 22.72-79.736 27.755-19.09 3.454-38.95 3.39-57.82-1.501-17.085-4.429-32.632-12.983-48.472-20.506-12.255-5.822-25.096-10.689-38.571-12.712"
       id="path205" />
    <path
       style="fill:none;fill-opacity:1;stroke:#543a38;stroke-width:6;stroke-linecap:round;stroke-linejoin:bevel;stroke-miterlimit:4;stroke-dasharray:none;stroke-opacity:1;paint-order:markers stroke fill"
       d="M2018.864 582.306c-20.419 14.076-41.67 27.417-64.957 36.206-15.541 5.865-32.422 9.527-49.08 7.148-12.499-1.786-24.033-7.523-34.413-14.52-13.737-9.258-26.292-20.574-41.69-27.128-5.177-2.203-10.607-3.821-16.162-4.731"
       id="path207" />
    <path
       style="fill:none;fill-opacity:1;stroke:#543a38;stroke-width:6;stroke-linecap:round;stroke-linejoin:bevel;stroke-miterlimit:4;stroke-dasharray:none;stroke-opacity:1;paint-order:markers stroke fill"
       d="M2016.702 602.379c-17.302 17.269-35.93 33.673-57.523 45.368-14.636 7.927-31.089 13.534-47.94 12.85-13.366-.542-26.218-5.789-36.936-13.67-13.976-10.279-24.297-24.455-34.483-38.295-3.23-4.388-6.36-8.891-10.156-12.82"
       id="path209" />
    <path
       style="fill:none;fill-opacity:1;stroke:#543a38;stroke-width:8;stroke-linecap:round;stroke-linejoin:bevel;stroke-miterlimit:4;stroke-dasharray:none;stroke-opacity:1;paint-order:markers stroke fill"
       d="M2050.987 443.635c-77.293-37.04-173.52-30.895-245.398 15.99-35.833 23.374-64.421 57.818-80.026 97.775-14.174 36.293-17.232 76.248-12.107 114.683"
       id="path211" />
    <path
       style="fill:none;fill-opacity:1;stroke:#543a38;stroke-width:8;stroke-linecap:round;stroke-linejoin:bevel;stroke-miterlimit:4;stroke-dasharray:none;stroke-opacity:1;paint-order:markers stroke fill"
       d="M2040.756 490.207c-45.849-15.348-93.681-27.028-142.291-26.892-34.839.098-70.425 7.467-100.321 26.07-26.443 16.453-46.56 41.798-59.167 70.08-16.39 36.77-22.075 77.534-21.297 117.537.08 4.066.23 8.13.451 12.19"
       id="path213" />
    <path
       style="fill:none;fill-opacity:1;stroke:#543a38;stroke-width:8;stroke-linecap:round;stroke-linejoin:bevel;stroke-miterlimit:4;stroke-dasharray:none;stroke-opacity:1;paint-order:markers stroke fill"
       d="M2032.772 528.913c-40.973-17.56-84.132-31.816-128.866-34.884-32.084-2.2-65.349 2.64-93.82 18.331-26.336 14.515-46.67 38.269-59.995 64.977-16.376 32.827-24.165 69.455-25.832 105.933-.474 10.383-.472 20.8.335 31.167"
       id="path215" />
    <path
       style="fill:none;fill-opacity:1;stroke:#fda28f;stroke-width:6;stroke-linecap:round;stroke-linejoin:bevel;stroke-miterlimit:4;stroke-dasharray:none;stroke-opacity:1;paint-order:markers stroke fill"
       d="M1972.46 830.282c-3.035 1.442-6.088 2.882-8.866 4.798-5.362 3.696-9.43 9.03-12.22 14.87-4.009 8.392-5.872 17.64-6.805 26.838-1.094 10.803-.944 21.697-.237 32.52M1873.276 932.698c-3.385 2.92-6.688 6.012-9.273 9.68-1.763 2.5-3.194 5.348-3.506 8.433-.252 2.499.415 5.035 1.691 7.184 1.78 2.997 4.458 5.341 7.286 7.32a52.416 52.416 0 0 0 4.431 2.76M1968.72 933.285c3.611 3.008 7.126 6.223 9.86 10.068 1.735 2.439 3.18 5.199 3.54 8.21.273 2.285-.268 4.626-1.405 6.618-1.554 2.723-3.94 4.854-6.446 6.682-2.084 1.52-4.295 2.857-6.538 4.125"
       id="path217" />
    <path
       style="fill:#fff;fill-opacity:1;stroke:none;stroke-width:1.76636;stroke-linecap:round;stroke-linejoin:bevel;stroke-miterlimit:4;stroke-dasharray:none;stroke-opacity:1;paint-order:markers stroke fill"
       d="M529.6 460.923c-13.852-2.51-24.092-9.736-29.166-20.578-1.069-2.285-1.238-3.007-.885-3.781 1.052-2.31 7.073-3.755 17.713-4.25l6.475-.302-.278.997c-.153.548-.482 2.45-.73 4.226-1.341 9.584 3.725 19.404 12.029 23.318l2.103.992-2.103-.034c-1.157-.019-3.478-.283-5.159-.588zM550.371 460.33c5.7-3.326 8.76-11.726 7.791-21.383-.357-3.553-.966-3.456 5.641-.899 7.214 2.792 11.555 5.866 12.436 8.807 1.687 5.63-9.782 11.933-26.341 14.475l-1.682.258zM712.07 466.119c-10.357-1.083-20.865-4.382-27.697-8.695-2.022-1.277-2.086-1.48-1.011-3.231 1.966-3.205 7.409-7.12 13.428-9.658 4.387-1.85 12.686-4.519 13.286-4.272.34.14.334.205-.021.229-.921.061-1.925 6.077-1.746 10.467.143 3.49.357 4.481 1.493 6.903 1.552 3.308 4.227 6.091 7.351 7.648l2.186 1.09-1.87-.056c-1.029-.031-3.459-.222-5.4-.425zM734.072 464.85c2.337-1.231 5.284-4.401 6.885-7.405 2.186-4.102 3.071-8.273 3.077-14.5.003-2.949-.113-5.55-.257-5.783-.725-1.173 8.609.13 14.228 1.988 4.059 1.341 8.78 4.382 10.69 6.886.751.985 1.366 1.934 1.366 2.109 0 .558-5.562 5.07-9.042 7.333-6.756 4.395-14.905 7.678-23.311 9.393-5.33 1.087-5.731 1.085-3.636-.02z"
       transform="translate(1293.61 393.88)"
       id="path219" />
  </g>
</svg>
